<svg xmlns="http://www.w3.org/2000/svg" viewBox="0 0 1024 1024">
  <rect width="1024" height="1024" rx="220" fill="#0B1020"/>
  <path fill="#69C7E8" d="M512 94c231 0 418 187 418 418S743 930 512 930 94 743 94 512 281 94 512 94Zm0 92c-180 0-326 146-326 326s146 326 326 326 326-146 326-326-146-326-326-326Z"/>
  <path fill="#101A30" d="M512 238c151 0 274 123 274 274S663 786 512 786 238 663 238 512s123-274 274-274Z"/>
  <path fill="#D7B56D" d="M512 357 624 421v96L512 582 400 517v-96l112-64Z"/>
  <path fill="#8FE7FF" d="M313 632h398l-78 156-121-68-121 68-78-156Z"/>
</svg>
